<?xml version="1.0" encoding="utf-8"?>
<!-- Generator: Adobe Illustrator 16.0.0, SVG Export Plug-In . SVG Version: 6.00 Build 0)  -->
<!DOCTYPE svg PUBLIC "-//W3C//DTD SVG 1.1//EN" "http://www.w3.org/Graphics/SVG/1.1/DTD/svg11.dtd">
<svg version="1.1" id="Layer_1" xmlns="http://www.w3.org/2000/svg" xmlns:xlink="http://www.w3.org/1999/xlink" x="0px" y="0px"
	 width="512px" height="512px" viewBox="0 0 512 512" enable-background="new 0 0 512 512" xml:space="preserve">
<path d="M512,288v-64l-69.156-11.531c-4.813-20.781-13-40.188-23.969-57.781l40.781-57.063l-45.25-45.25l-57.094,40.75
	c-17.594-10.938-37-19.156-57.781-24L288,0h-64l-11.531,69.125c-20.75,4.844-40.188,13.063-57.781,24l-57.094-40.75l-45.25,45.25
	l40.781,57.063c-10.969,17.563-19.156,37-23.969,57.781L0,224v64l69.156,11.531c4.813,20.781,13,40.188,23.969,57.781
	l-40.781,57.094l45.25,45.25l57.125-40.781c17.563,10.969,37,19.156,57.75,23.969L224,512h64l11.531-69.156
	c20.75-4.813,40.188-13,57.781-23.969l57.094,40.781l45.25-45.25l-40.781-57.094c10.969-17.594,19.156-37.031,23.969-57.781L512,288
	z M256,384c-70.688,0-128-57.313-128-128s57.313-128,128-128s128,57.313,128,128S326.688,384,256,384z"/>
</svg>
